<svg width="112" height="112" viewBox="0 0 112 112" fill="none" xmlns="http://www.w3.org/2000/svg">
<path d="M96 0H16C7.16344 0 0 7.16344 0 16V96C0 104.837 7.16344 112 16 112H96C104.837 112 112 104.837 112 96V16C112 7.16344 104.837 0 96 0Z" fill="#904EE2"/>
<path fill-rule="evenodd" clip-rule="evenodd" d="M15.9988 56.0024C15.9988 33.9057 33.9115 16.0012 56 16.0012C78.0885 16.0012 96.0012 33.9057 96.0012 56.0024C96.0012 78.0914 78.089 96.0036 56 96.0036C33.911 96.0036 15.9988 78.0914 15.9988 56.0024ZM56 24.0012C38.3287 24.0012 23.9988 38.325 23.9988 56.0024C23.9988 73.6731 38.3293 88.0036 56 88.0036C73.6707 88.0036 88.0012 73.6731 88.0012 56.0024C88.0012 38.325 73.6712 24.0012 56 24.0012Z" fill="white"/>
<path fill-rule="evenodd" clip-rule="evenodd" d="M71.328 46.2184L55.328 70.2184C55.264 70.3144 55.16 70.3464 55.088 70.4344C54.992 70.5624 54.944 70.7144 54.824 70.8264C54.632 71.0264 54.384 71.1224 54.16 71.2744C54 71.3784 53.864 71.5064 53.688 71.5864C53.152 71.8344 52.584 72.0024 52 72.0024C52 72.0024 52 72.0024 51.992 72.0024V71.9944C51.304 71.9944 50.656 71.7544 50.048 71.4104C49.96 71.3624 49.864 71.3784 49.784 71.3304C49.664 71.2504 49.608 71.1304 49.504 71.0424C49.4 70.9624 49.272 70.9224 49.168 70.8264L41.168 62.8264C39.608 61.2664 39.608 58.7304 41.168 57.1704C42.736 55.6104 45.264 55.6104 46.824 57.1704L51.376 61.7224L64.672 41.7784C65.904 39.9384 68.392 39.4584 70.216 40.6744C72.056 41.8984 72.552 44.3784 71.328 46.2184Z" fill="white"/>
</svg>
